<svg width="22" height="22" viewBox="0 0 22 22" fill="none" xmlns="http://www.w3.org/2000/svg">
<path fill-rule="evenodd" clip-rule="evenodd" d="M7.25326 0.362613C7.47382 0.49939 7.60799 0.740473 7.60799 1C7.60799 5.60985 8.75088 8.91843 10.9125 11.0802C13.0742 13.242 16.3828 14.3852 20.9931 14.3852C21.2526 14.3852 21.4936 14.5192 21.6304 14.7396C21.7672 14.96 21.7804 15.2355 21.6652 15.468C20.5343 17.7518 18.664 19.586 16.3587 20.6725L16.3586 20.6725C14.0532 21.7588 11.4482 22.0335 8.96685 21.452L8.96682 21.452C6.48548 20.8703 4.27381 19.4667 2.69126 17.469C1.10872 15.4713 0.248349 12.997 0.250002 10.4485L1 10.449L0.250002 10.4492C0.250002 10.4489 0.250002 10.4487 0.250002 10.4485C0.249593 8.34473 0.836716 6.28267 1.94522 4.49463L1.94522 4.49463C3.05385 2.7064 4.63991 1.26337 6.52462 0.328164C6.7571 0.212806 7.0327 0.225836 7.25326 0.362613ZM6.13723 2.27924C4.96348 3.05648 3.96688 4.08043 3.2201 5.285C2.2587 6.83575 1.74954 8.6242 1.75 10.4488L1.75 10.4495C1.74857 12.6595 2.49467 14.8052 3.86703 16.5376C5.23937 18.2699 7.15729 19.4872 9.30913 19.9916C11.4609 20.4959 13.72 20.2577 15.7193 19.3156C17.35 18.547 18.7297 17.3471 19.7151 15.856C15.4888 15.6586 12.167 14.4561 9.85186 12.1408C7.53699 9.82584 6.33478 6.50443 6.13723 2.27924Z" fill="#757575"/>
</svg>
