<svg width="34" height="38" viewBox="0 0 34 38" fill="none" xmlns="http://www.w3.org/2000/svg">
<path fill-rule="evenodd" clip-rule="evenodd" d="M5 1.75C4.13802 1.75 3.31141 2.09241 2.7019 2.7019C2.7019 2.7019 2.7019 2.7019 2.7019 2.7019M2.7019 2.7019C2.09241 3.3114 1.75 4.13805 1.75 5V33C1.75 33.4142 1.41421 33.75 1 33.75C0.585786 33.75 0.25 33.4142 0.25 33V5C0.25 3.74022 0.750449 2.53204 1.64124 1.64124L1.64124 1.64124C2.53204 0.750451 3.74018 0.25 5 0.25H31.8C32.3172 0.25 32.8132 0.455444 33.1789 0.821187C33.5446 1.18693 33.75 1.68291 33.75 2.2V28.428C33.75 28.5293 33.7299 28.6259 33.6935 28.714C33.7299 28.8021 33.75 28.8987 33.75 29C33.75 29.4142 33.4142 29.75 33 29.75H5C4.58579 29.75 4.25 29.4142 4.25 29C4.25 28.5858 4.58579 28.25 5 28.25H32.25V2.2C32.25 2.08062 32.2026 1.96621 32.1182 1.88186L32.1181 1.88175C32.0338 1.79742 31.9194 1.75 31.8 1.75H5M4.25 37C4.25 36.5858 4.58579 36.25 5 36.25H33C33.4142 36.25 33.75 36.5858 33.75 37C33.75 37.4142 33.4142 37.75 33 37.75H5C4.58579 37.75 4.25 37.4142 4.25 37Z" fill="#757575"/>
<path fill-rule="evenodd" clip-rule="evenodd" d="M5 29.75C4.13801 29.75 3.3114 30.0924 2.70192 30.7019L2.70189 30.7019C2.09241 31.3114 1.75 32.138 1.75 33C1.75 33.862 2.09241 34.6886 2.70189 35.2981L2.70192 35.2981C3.3114 35.9076 4.13801 36.25 5 36.25C5.41421 36.25 5.75 36.5858 5.75 37C5.75 37.4142 5.41421 37.75 5 37.75C3.74019 37.75 2.53204 37.2496 1.64122 36.3587C0.750434 35.468 0.25 34.2598 0.25 33C0.25 31.7402 0.750446 30.532 1.64125 29.6413L2.17157 30.1716L1.64125 29.6413C2.53207 28.7504 3.74019 28.25 5 28.25C5.41421 28.25 5.75 28.5858 5.75 29C5.75 29.4142 5.41421 29.75 5 29.75Z" fill="#757575"/>
<path fill-rule="evenodd" clip-rule="evenodd" d="M10.25 9C10.25 8.58579 10.5858 8.25 11 8.25H23C23.4142 8.25 23.75 8.58579 23.75 9C23.75 9.41421 23.4142 9.75 23 9.75H11C10.5858 9.75 10.25 9.41421 10.25 9Z" fill="#757575"/>
</svg>
